<mxfile>
    <diagram id="nmVdRzCMXVpeTzNxSv2q" name="Page-1">
        <mxGraphModel dx="996" dy="822" grid="1" gridSize="10" guides="1" tooltips="1" connect="1" arrows="1" fold="1" page="1" pageScale="1" pageWidth="850" pageHeight="1100" math="0" shadow="0">
            <root>
                <mxCell id="0"/>
                <mxCell id="1" parent="0"/>
                <mxCell id="57" value="" style="rounded=0;whiteSpace=wrap;html=1;strokeColor=none;fillColor=none;sketch=1;" parent="1" vertex="1">
                    <mxGeometry width="760" height="350" as="geometry"/>
                </mxCell>
                <mxCell id="50" value="" style="whiteSpace=wrap;html=1;shadow=0;glass=0;fillColor=none;sketch=1;" parent="1" vertex="1">
                    <mxGeometry x="305" y="20" width="150" height="120" as="geometry"/>
                </mxCell>
                <mxCell id="53" value="" style="shadow=0;glass=0;fillColor=none;whiteSpace=wrap;html=1;labelBorderColor=none;labelBackgroundColor=none;sketch=1;" parent="1" vertex="1">
                    <mxGeometry x="465" y="20" width="275" height="120" as="geometry"/>
                </mxCell>
                <mxCell id="49" value="" style="whiteSpace=wrap;html=1;shadow=0;glass=0;fillColor=none;sketch=1;" parent="1" vertex="1">
                    <mxGeometry x="21" y="20" width="270" height="120" as="geometry"/>
                </mxCell>
                <mxCell id="44" style="edgeStyle=orthogonalEdgeStyle;orthogonalLoop=1;jettySize=auto;html=1;entryX=0.5;entryY=1;entryDx=0;entryDy=0;exitX=0.5;exitY=0;exitDx=0;exitDy=0;curved=1;sketch=0;" parent="1" source="35" target="49" edge="1">
                    <mxGeometry x="20" y="20" as="geometry"/>
                </mxCell>
                <mxCell id="35" value="SRE" style="whiteSpace=wrap;html=1;fillColor=#F45B69;sketch=1;" parent="1" vertex="1">
                    <mxGeometry x="305" y="270" width="150" height="60" as="geometry"/>
                </mxCell>
                <mxCell id="37" value="ServiceD" style="whiteSpace=wrap;html=1;fillColor=#e1d5e7;strokeColor=#9673a6;sketch=1;" parent="1" vertex="1">
                    <mxGeometry x="490" y="90" width="100" height="38.75" as="geometry"/>
                </mxCell>
                <mxCell id="39" value="ServiceE" style="whiteSpace=wrap;html=1;fillColor=#d5e8d4;strokeColor=#82b366;sketch=1;" parent="1" vertex="1">
                    <mxGeometry x="620" y="90" width="100" height="38.75" as="geometry"/>
                </mxCell>
                <mxCell id="40" value="ServiceC" style="whiteSpace=wrap;html=1;fillColor=#f8cecc;strokeColor=#b85450;sketch=1;" parent="1" vertex="1">
                    <mxGeometry x="330" y="90" width="100" height="38.75" as="geometry"/>
                </mxCell>
                <mxCell id="41" value="ServiceB" style="whiteSpace=wrap;html=1;fillColor=#ffe6cc;strokeColor=#d79b00;sketch=1;" parent="1" vertex="1">
                    <mxGeometry x="170" y="90" width="100" height="38.75" as="geometry"/>
                </mxCell>
                <mxCell id="42" value="ServiceA" style="whiteSpace=wrap;html=1;fillColor=#dae8fc;strokeColor=#6c8ebf;sketch=1;" parent="1" vertex="1">
                    <mxGeometry x="40" y="90" width="100" height="38.75" as="geometry"/>
                </mxCell>
                <mxCell id="48" value="TeamA" style="text;html=1;strokeColor=none;fillColor=none;align=center;verticalAlign=middle;whiteSpace=wrap;shadow=0;glass=0;sketch=1;" parent="1" vertex="1">
                    <mxGeometry x="130" y="30" width="40" height="20" as="geometry"/>
                </mxCell>
                <mxCell id="45" style="edgeStyle=orthogonalEdgeStyle;orthogonalLoop=1;jettySize=auto;html=1;entryX=0.5;entryY=1;entryDx=0;entryDy=0;curved=1;sketch=0;" parent="1" source="35" target="50" edge="1">
                    <mxGeometry x="20" y="20" as="geometry"/>
                </mxCell>
                <mxCell id="51" value="TeamB" style="text;html=1;strokeColor=none;fillColor=none;align=center;verticalAlign=middle;whiteSpace=wrap;shadow=0;glass=0;sketch=1;" parent="1" vertex="1">
                    <mxGeometry x="355" y="30" width="40" height="20" as="geometry"/>
                </mxCell>
                <mxCell id="52" value="TeamC" style="text;html=1;strokeColor=none;fillColor=none;align=center;verticalAlign=middle;whiteSpace=wrap;shadow=0;glass=0;sketch=1;" parent="1" vertex="1">
                    <mxGeometry x="582.5" y="30" width="40" height="20" as="geometry"/>
                </mxCell>
                <mxCell id="46" style="edgeStyle=orthogonalEdgeStyle;orthogonalLoop=1;jettySize=auto;html=1;entryX=0.5;entryY=1;entryDx=0;entryDy=0;exitX=0.5;exitY=0;exitDx=0;exitDy=0;curved=1;sketch=0;" parent="1" source="35" target="53" edge="1">
                    <mxGeometry x="20" y="20" as="geometry"/>
                </mxCell>
            </root>
        </mxGraphModel>
    </diagram>
</mxfile>